<?xml version="1.0" encoding="UTF-8" standalone="no"?>
<svg
   xmlns:dc="http://purl.org/dc/elements/1.1/"
   xmlns:cc="http://creativecommons.org/ns#"
   xmlns:rdf="http://www.w3.org/1999/02/22-rdf-syntax-ns#"
   xmlns:svg="http://www.w3.org/2000/svg"
   xmlns="http://www.w3.org/2000/svg"
   xmlns:sodipodi="http://sodipodi.sourceforge.net/DTD/sodipodi-0.dtd"
   xmlns:inkscape="http://www.inkscape.org/namespaces/inkscape"
   version="1.1"
   id="svg2"
   xml:space="preserve"
   width="512"
   height="512"
   viewBox="0 0 512 512"
   sodipodi:docname="icon.svg"
   inkscape:version="1.0.1 (3bc2e813f5, 2020-09-07)"><metadata
     id="metadata8"><rdf:RDF><cc:Work
         rdf:about=""><dc:format>image/svg+xml</dc:format><dc:type
           rdf:resource="http://purl.org/dc/dcmitype/StillImage" /><dc:title></dc:title></cc:Work></rdf:RDF></metadata><defs
     id="defs6"><clipPath
       clipPathUnits="userSpaceOnUse"
       id="clipPath18"><path
         d="M 0,508.97 H 505.175 V 0 H 0 Z"
         id="path16" /></clipPath></defs><sodipodi:namedview
     pagecolor="#ffffff"
     bordercolor="#666666"
     borderopacity="1"
     objecttolerance="10"
     gridtolerance="10"
     guidetolerance="10"
     inkscape:pageopacity="0"
     inkscape:pageshadow="2"
     inkscape:window-width="1920"
     inkscape:window-height="1016"
     id="namedview4"
     showgrid="false"
     fit-margin-top="0"
     fit-margin-left="0"
     fit-margin-right="0"
     fit-margin-bottom="0"
     inkscape:zoom="1.261371"
     inkscape:cx="351.26392"
     inkscape:cy="288.38891"
     inkscape:window-x="0"
     inkscape:window-y="27"
     inkscape:window-maximized="1"
     inkscape:current-layer="g10" /><g
     id="g10"
     inkscape:groupmode="layer"
     inkscape:label="Logo Bouygues Telecom Vertical haute def print"
     transform="matrix(1.3333333,0,0,-1.3333333,14.48059,691.12531)"><g
       id="g1005"><rect
         style="fill:#ffffff;fill-opacity:1;stroke:none;stroke-width:1.66848"
         id="rect915"
         width="384"
         height="384"
         x="-10.860443"
         y="-518.34399"
         transform="scale(1,-1)" /><g
         id="g12"
         transform="matrix(0.7101681,0,0,0.7101681,1.7606821,145.90796)"><g
           id="g14"
           clip-path="url(#clipPath18)"><g
             id="g20"
             transform="translate(281.5062,190.7201)"><path
               d="m 0,0 c 23.179,-16.006 69.044,10.148 102.433,58.508 33.391,48.359 41.669,100.48 18.489,116.487 C 97.737,191.002 53.029,166.184 19.638,117.823 -13.75,69.465 -23.176,16.008 0,0"
               style="fill:#ec5b00;fill-opacity:1;fill-rule:nonzero;stroke:none"
               id="path22" /></g><g
             id="g24"
             transform="translate(223.6854,190.7201)"><path
               d="m 0,0 c -23.179,-16.006 -69.044,10.148 -102.433,58.508 -33.391,48.359 -41.669,100.48 -18.49,116.487 23.186,16.007 67.894,-8.811 101.285,-57.172 C 13.75,69.465 23.176,16.008 0,0"
               style="fill:#0053a6;fill-opacity:1;fill-rule:nonzero;stroke:none"
               id="path26" /></g><g
             id="g28"
             transform="translate(359.0883,405.909)"><path
               d="m 0,0 c 0,28.13 -47.687,50.935 -106.511,50.935 -58.825,0 -106.511,-22.805 -106.511,-50.935 0,-28.13 47.686,-50.935 106.511,-50.935 C -47.687,-50.935 0,-28.13 0,0"
               style="fill:#009cce;fill-opacity:1;fill-rule:nonzero;stroke:none"
               id="path30" /></g><g
             id="g32"
             transform="translate(140.5199,89.0589)"><path
               d="m 0,0 c -2.852,-3.613 -7.186,-5.024 -11.781,-5.024 -4.596,0 -8.929,1.411 -11.781,5.024 -2.877,3.646 -3.22,9.711 -3.22,16.218 0,6.504 0.343,11.522 3.22,15.169 2.852,3.614 7.185,5.012 11.781,5.012 4.595,0 8.929,-1.398 11.781,-5.012 C 2.878,27.74 3.221,22.716 3.221,16.218 3.221,9.718 2.878,3.646 0,0 m 6.512,37.364 c -5.047,5.883 -12.332,7.424 -18.293,7.43 -5.961,0.005 -13.247,-1.547 -18.293,-7.43 -5.036,-5.865 -5.761,-13.602 -5.761,-21.146 0,-7.547 0.725,-16.33 5.761,-22.198 5.046,-5.881 12.332,-7.435 18.293,-7.427 5.961,0.006 13.246,1.546 18.293,7.427 5.037,5.868 5.761,14.189 5.761,22.198 0,8.006 -0.724,15.281 -5.761,21.146"
               style="fill:#009cce;fill-opacity:1;fill-rule:nonzero;stroke:none"
               id="path34" /></g><g
             id="g36"
             transform="translate(202.559,128.1468)"><path
               d="M 0,0 C 0,2.427 -1.966,4.393 -4.391,4.393 -6.818,4.393 -8.784,2.427 -8.784,0 L -8.79,-41.274 c 0,-0.747 -0.547,-1.433 -1.114,-1.665 -0.566,-0.23 -3,-1.181 -11.292,-1.181 -4.159,0 -8.567,1.659 -11.265,5.227 -2.72,3.596 -3.048,9.861 -3.048,16.274 L -35.51,0 c 0,2.427 -1.966,4.393 -4.392,4.393 -2.426,0 -4.392,-1.966 -4.392,-4.393 l -0.004,-22.602 c 0,-7.898 0.499,-16.383 5.631,-22.593 4.483,-5.424 11.988,-7.327 17.471,-7.327 3.479,0 11.091,-0.242 17.949,2.309 1.888,0.632 3.235,3.085 3.235,5.184 z"
               style="fill:#009cce;fill-opacity:1;fill-rule:nonzero;stroke:none"
               id="path38" /></g><g
             id="g40"
             transform="translate(354.9144,128.1468)"><path
               d="M 0,0 C 0,2.427 -1.966,4.393 -4.391,4.393 -6.817,4.393 -8.784,2.427 -8.784,0 L -8.79,-41.274 c 0,-0.747 -0.547,-1.433 -1.114,-1.665 -0.565,-0.23 -3,-1.181 -11.292,-1.181 -4.159,0 -8.567,1.659 -11.265,5.227 -2.72,3.596 -3.048,9.861 -3.048,16.274 L -35.51,0 c 0,2.427 -1.966,4.393 -4.392,4.393 -2.425,0 -4.392,-1.966 -4.392,-4.393 l -0.003,-22.602 c 0,-7.898 0.498,-16.383 5.63,-22.593 4.482,-5.424 11.988,-7.327 17.471,-7.327 3.479,0 11.09,-0.242 17.949,2.309 1.888,0.632 3.236,3.085 3.236,5.184 z"
               style="fill:#009cce;fill-opacity:1;fill-rule:nonzero;stroke:none"
               id="path42" /></g><g
             id="g44"
             transform="translate(294.7655,93.8822)"><path
               d="m 0,0 c 0,-3.165 -1.333,-5.295 -2.829,-6.702 -1.845,-1.731 -5.952,-3.15 -10.55,-3.15 -4.595,0 -8.928,1.322 -11.78,4.888 -2.877,3.596 -3.221,8.656 -3.221,15.067 0,6.414 0.344,13.043 3.221,16.638 2.852,3.567 7.28,4.843 11.78,4.843 3.49,0 8.243,-0.756 12.207,-2.155 C -0.489,29.193 0,28.542 0,27.778 Z m 9.035,31.968 c 0,1.92 -1.134,3.571 -2.768,4.327 -7.422,3.189 -15.839,3.656 -19.646,3.656 -5.796,0 -13.247,-1.506 -18.291,-7.31 -5.038,-5.786 -5.762,-14.64 -5.762,-22.538 0,-7.899 0.724,-15.179 5.762,-20.967 5.044,-5.804 12.313,-7.372 18.291,-7.372 5.503,0 11.575,2.465 13.495,4.553 v -7.546 c 0,-4.051 -0.967,-7.25 -2.915,-9.494 -1.925,-2.228 -4.659,-3.355 -8.124,-3.355 -2.288,0 -4.656,0.301 -7.038,0.886 -2.37,0.585 -6.387,2.499 -7.811,3.183 -1.423,0.688 -4.061,0.159 -5.257,-1.767 -1.197,-1.928 -0.401,-4.804 1.484,-5.841 1.883,-1.035 4.277,-2.452 9.296,-3.745 3.204,-0.825 6.341,-1.214 9.326,-1.214 3.275,0 6.198,0.527 8.691,1.631 2.493,1.098 4.598,2.616 6.25,4.511 1.647,1.885 2.911,4.182 3.755,6.81 0.839,2.611 1.263,5.439 1.263,8.395 z"
               style="fill:#009cce;fill-opacity:1;fill-rule:nonzero;stroke:none"
               id="path46" /></g><g
             id="g48"
             transform="translate(445.2372,122.1107)"><path
               d="m 0,0 c 0.31,-0.08 0.638,-0.122 0.974,-0.12 2.179,0 3.949,1.772 3.949,3.958 0.001,0.051 -0.003,0.1 -0.003,0.146 0,1.275 -0.804,3.157 -2.354,4.12 -3.824,2.648 -9.659,3.64 -14.738,3.64 -5.086,0 -10.462,-1.286 -13.804,-3.819 -3.377,-2.569 -5.091,-6.186 -5.091,-10.759 0,-8.377 6.193,-14.464 18.412,-16.986 5.395,-1.132 11.28,-3.909 11.28,-8.716 0,-2.427 -1.156,-5.066 -3.122,-6.486 -3.147,-2.291 -7.696,-2.745 -9.932,-2.76 -2.95,-0.026 -7.58,0.616 -11.482,2.803 -0.167,0.118 -0.351,0.216 -0.537,0.319 -0.604,0.329 -1.293,0.517 -2.029,0.517 -2.338,0 -4.233,-1.9 -4.233,-4.247 0,-0.998 0.345,-1.915 0.918,-2.637 0.351,-0.478 0.785,-0.902 1.308,-1.23 5.274,-3.648 12.787,-4.2 16.201,-4.2 3.226,0 6.356,0.667 9.811,1.736 2.482,0.773 4.633,1.896 6.402,3.344 1.763,1.454 3.167,3.232 4.168,5.279 1.001,2.056 1.714,5.109 1.714,7.562 0,11.236 -9.977,15.679 -18.684,17.375 -7.397,1.536 -11.145,4.71 -11.145,8.327 0,1.048 0.26,1.962 0.775,2.722 0.529,0.772 1.207,1.392 2.021,1.842 0.837,0.459 1.817,0.799 2.91,1.012 1.118,0.215 2.365,0.33 4.139,0.324 C -9.665,3.057 -4.336,1.925 -2.034,0.788 -1.39,0.468 -0.702,0.172 0,0"
               style="fill:#009cce;fill-opacity:1;fill-rule:nonzero;stroke:none"
               id="path50" /></g><g
             id="g52"
             transform="translate(86.3178,88.846)"><path
               d="m 0,0 c -2.851,-3.564 -7.28,-4.825 -11.782,-4.825 -3.514,0 -8.307,0.743 -12.287,2.159 h 0.003 c -0.634,0.207 -1.092,0.803 -1.092,1.504 v 27.977 c 0,3.164 1.332,5.296 2.826,6.699 1.846,1.733 5.954,3.089 10.55,3.089 4.597,0 8.931,-1.259 11.782,-4.826 C 2.877,28.182 3.22,22.308 3.22,15.895 3.22,9.481 2.877,3.598 0,0 m 6.511,37.677 c -5.045,5.804 -12.313,7.33 -18.293,7.33 -5.501,0 -11.572,-2.42 -13.494,-4.51 l 0.001,26.333 c 0,2.461 -1.995,4.456 -4.454,4.456 -2.46,0 -4.454,-1.995 -4.454,-4.456 l -0.011,-71.895 c 0,-2.122 1.323,-3.933 3.19,-4.654 7.314,-3.031 15.487,-3.471 19.222,-3.471 5.798,0 13.248,1.486 18.293,7.29 5.038,5.79 5.762,13.896 5.762,21.795 0,7.9 -0.724,15.996 -5.762,21.782"
               style="fill:#009cce;fill-opacity:1;fill-rule:nonzero;stroke:none"
               id="path54" /></g><g
             id="g56"
             transform="translate(233.7186,90.7435)"><path
               d="m 0,0 c -0.246,-0.523 -0.77,-0.854 -1.336,-0.851 -0.688,0.005 -1.185,0.722 -1.37,0.99 -1.399,2 -12.312,32.255 -14.679,38.826 -0.826,2.228 -3.335,3.379 -5.559,2.558 -2.218,-0.818 -3.376,-3.315 -2.566,-5.542 l 14.188,-37.625 c 1.663,-4.451 4.061,-6.974 7.579,-8.237 l -8.623,-22.841 c -0.854,-2.251 0.278,-4.766 2.531,-5.621 2.251,-0.855 4.768,0.276 5.622,2.53 l 27.17,71.763 c 0.825,2.219 -0.308,4.718 -2.504,5.56 -2.215,0.847 -4.749,-0.283 -5.598,-2.514 z"
               style="fill:#009cce;fill-opacity:1;fill-rule:nonzero;stroke:none"
               id="path58" /></g><g
             id="g60"
             transform="translate(371.2108,111.3617)"><path
               d="m 0,0 c -0.019,0.937 -0.137,7.48 5.221,11.484 3.273,2.445 6.849,2.609 9.032,2.609 2.183,0 6.311,0.086 9.936,-2.665 C 29.548,7.358 29.6,0.906 29.581,0 Z m 32.974,15.161 c -6.32,7.405 -16.47,7.341 -18.546,7.33 -1.922,-0.012 -11.963,-0.06 -18.041,-7.33 -2.754,-3.293 -3.844,-6.9 -4.599,-10.082 -0.949,-4.003 -1.074,-7.695 -1.074,-11.655 0,-7.447 0.638,-16.015 5.674,-21.804 5.044,-5.802 12.331,-7.328 18.292,-7.328 6.587,0 13.756,0.546 19.028,4.183 1.026,0.637 1.734,1.672 2.086,2.668 0.171,0.454 0.265,0.944 0.265,1.457 0,2.263 -1.832,4.095 -4.094,4.095 -0.529,0 -1.024,-0.115 -1.493,-0.281 -0.265,-0.094 -0.601,-0.295 -1.338,-0.687 -3.897,-2.179 -7.614,-3.19 -14.454,-3.034 -4.596,0 -8.929,1.262 -11.78,4.828 -2.664,3.329 -3.067,8.625 -3.124,14.484 h 34.327 c 2.571,0 4.655,2.084 4.655,4.652 0,12.525 -5.784,18.504 -5.784,18.504"
               style="fill:#009cce;fill-opacity:1;fill-rule:nonzero;stroke:none"
               id="path62" /></g><g
             id="g64"
             transform="translate(316.4545,52.1263)"><path
               d="m 0,0 h -1.047 c -0.383,0 -0.69,0.274 -0.69,0.618 v 10.573 h -3.41 c -0.381,0 -0.69,0.277 -0.69,0.617 v 0.986 c 0,0.339 0.309,0.613 0.69,0.613 h 9.262 c 0.382,0 0.693,-0.274 0.693,-0.613 v -0.986 c 0,-0.34 -0.311,-0.617 -0.693,-0.617 H 0.689 V 0.618 C 0.689,0.274 0.38,0 0,0"
               style="fill:#009cce;fill-opacity:1;fill-rule:nonzero;stroke:none"
               id="path66" /></g><g
             id="g68"
             transform="translate(362.8656,52.1263)"><path
               d="m 0,0 h -8.349 c -0.385,0 -0.69,0.274 -0.69,0.618 v 12.176 c 0,0.339 0.305,0.613 0.69,0.613 h 1.042 c 0.388,0 0.697,-0.274 0.697,-0.613 V 2.219 H 0 c 0.382,0 0.695,-0.275 0.695,-0.617 V 0.618 C 0.695,0.274 0.382,0 0,0"
               style="fill:#009cce;fill-opacity:1;fill-rule:nonzero;stroke:none"
               id="path70" /></g><g
             id="g72"
             transform="translate(382.7455,52.1263)"><path
               d="m 0,0 h -8.347 c -0.381,0 -0.691,0.274 -0.691,0.618 v 12.176 c 0,0.339 0.31,0.613 0.691,0.613 H 0 c 0.385,0 0.696,-0.274 0.696,-0.613 V 11.808 C 0.696,11.468 0.385,11.191 0,11.191 H -6.61 V 7.844 h 5.527 c 0.387,0 0.691,-0.274 0.691,-0.607 V 6.296 c 0,-0.335 -0.304,-0.609 -0.691,-0.609 H -6.61 V 2.219 H 0 c 0.385,0 0.696,-0.275 0.696,-0.617 V 0.618 C 0.696,0.274 0.385,0 0,0"
               style="fill:#009cce;fill-opacity:1;fill-rule:nonzero;stroke:none"
               id="path74" /></g><g
             id="g76"
             transform="translate(341.1698,52.1263)"><path
               d="m 0,0 h -8.35 c -0.381,0 -0.689,0.274 -0.689,0.618 v 12.176 c 0,0.339 0.308,0.613 0.689,0.613 H 0 c 0.384,0 0.695,-0.274 0.695,-0.613 V 11.808 C 0.695,11.468 0.384,11.191 0,11.191 H -6.612 V 7.844 h 5.527 c 0.387,0 0.692,-0.274 0.692,-0.607 V 6.296 c 0,-0.335 -0.305,-0.609 -0.692,-0.609 H -6.612 V 2.219 H 0 c 0.384,0 0.695,-0.275 0.695,-0.617 V 0.618 C 0.695,0.274 0.384,0 0,0"
               style="fill:#009cce;fill-opacity:1;fill-rule:nonzero;stroke:none"
               id="path78" /></g><g
             id="g80"
             transform="translate(449.3153,52.1263)"><path
               d="M 0,0 H -1.044 C -1.427,0 -1.743,0.274 -1.743,0.618 V 7.201 L -4.585,0.388 C -4.696,0.169 -4.951,0.025 -5.224,0.025 h -1.037 c -0.275,0 -0.52,0.142 -0.635,0.363 L -9.823,7.251 V 0.618 C -9.823,0.274 -10.135,0 -10.511,0 h -1.048 c -0.379,0 -0.69,0.274 -0.69,0.618 v 12.176 c 0,0.339 0.311,0.613 0.69,0.613 h 1.048 c 0.264,0 0.514,-0.137 0.624,-0.359 l 4.157,-9.829 4.052,9.823 c 0.108,0.222 0.36,0.365 0.634,0.365 H 0 c 0.383,0 0.69,-0.274 0.69,-0.613 V 0.618 C 0.69,0.274 0.383,0 0,0"
               style="fill:#009cce;fill-opacity:1;fill-rule:nonzero;stroke:none"
               id="path82" /></g><g
             id="g84"
             transform="translate(423.5087,54.7738)"><path
               d="m 0,0 c -0.557,-0.499 -1.357,-0.75 -2.155,-0.75 -0.799,0 -1.595,0.251 -2.16,0.75 -0.789,0.701 -1.106,1.44 -1.106,4.077 0,2.635 0.317,3.38 1.106,4.073 0.567,0.499 1.332,0.783 2.16,0.783 C -1.329,8.933 -0.559,8.649 0,8.15 0.795,7.457 1.112,6.712 1.112,4.077 1.112,1.44 0.795,0.701 0,0 m 1.851,9.559 c -1.061,0.942 -2.534,1.414 -4.006,1.414 -1.471,0 -2.945,-0.472 -4.008,-1.414 -1.509,-1.334 -1.736,-2.72 -1.736,-5.482 0,-2.766 0.227,-4.148 1.736,-5.48 1.07,-0.945 2.487,-1.461 4.008,-1.461 1.522,0 2.939,0.516 4.006,1.461 1.51,1.332 1.736,2.714 1.736,5.48 0,2.762 -0.226,4.148 -1.736,5.482"
               style="fill:#009cce;fill-opacity:1;fill-rule:nonzero;stroke:none"
               id="path86" /></g><g
             id="g88"
             transform="translate(404.786,56.1888)"><path
               d="m 0,0 -1.08,0.169 c -0.32,0.05 -0.64,-0.11 -0.76,-0.382 -0.178,-0.557 -0.446,-0.907 -0.827,-1.235 -0.56,-0.499 -1.33,-0.779 -2.157,-0.779 -0.828,0 -1.597,0.28 -2.156,0.779 -0.793,0.694 -1.11,1.44 -1.11,4.075 0,2.633 0.317,3.403 1.11,4.098 0.559,0.5 1.328,0.782 2.156,0.782 0.827,0 1.597,-0.282 2.157,-0.782 C -2.286,6.398 -2.018,6.05 -1.84,5.493 -1.72,5.217 -1.4,5.06 -1.08,5.108 L 0,5.277 c 0.21,0.035 0.383,0.149 0.493,0.309 0.114,0.158 0.129,0.362 0.062,0.537 -0.25,0.768 -0.674,1.397 -1.374,2.011 -1.061,0.94 -2.529,1.412 -4.005,1.412 -1.472,0 -2.946,-0.472 -4.006,-1.412 -1.511,-1.336 -1.737,-2.722 -1.737,-5.482 0,-2.763 0.226,-4.175 1.737,-5.504 1.06,-0.946 2.534,-1.414 4.006,-1.414 1.476,0 2.944,0.468 4.005,1.414 0.7,0.611 1.124,1.238 1.374,2.006 0.067,0.175 0.052,0.378 -0.062,0.54 C 0.383,-0.147 0.21,-0.035 0,0"
               style="fill:#009cce;fill-opacity:1;fill-rule:nonzero;stroke:none"
               id="path90" /></g></g></g></g></g></svg>
